<svg width="31" height="41" viewBox="0 0 31 41" fill="none" xmlns="http://www.w3.org/2000/svg">
    <g id="unlimitedticket copy 8">
        <rect id="Rectangle Copy 3" x="1" y="1" width="29" height="39" rx="4" fill="#9B51E0" stroke="#9B51E0"
            stroke-width="1.5" />
        <g id="Group 10 Copy 2">
            <g id="Group 3">
                <mask id="mask0_3_1345" style="mask-type:luminance" maskUnits="userSpaceOnUse" x="3" y="12" width="24"
                    height="17">
                    <path id="Clip 2" fill-rule="evenodd" clip-rule="evenodd" d="M3 12H27V29H3L3 12Z" fill="white" />
                </mask>
                <g mask="url(#mask0_3_1345)">
                    <path id="Fill 1" fill-rule="evenodd" clip-rule="evenodd"
                        d="M26.9963 20.6116C27.0021 20.3267 26.9909 20.0381 26.958 19.7454C26.6194 16.7608 24.162 14.3639 21.1219 14.0507C18.8913 13.8206 16.8541 14.6933 15.5029 16.1803C16.0279 16.8752 16.4277 17.6657 16.6731 18.5192C17.4677 17.0649 19.1143 16.1243 20.953 16.3479C22.8729 16.5813 24.4133 18.1133 24.63 20.0021C24.9192 22.516 22.9161 24.6541 20.4147 24.6541C18.7977 24.6541 17.3895 23.761 16.6731 22.4501C16.3532 21.864 16.2921 21.7128 16.1827 20.7923C16.0213 19.436 15.7376 17.8529 15 16.8078C14.8452 16.5883 14.6776 16.3786 14.497 16.1803C13.1459 14.6933 11.1083 13.8206 8.87807 14.0507C8.76908 14.0618 8.663 14.0814 8.55608 14.0982C9.02908 13.5034 9.6639 12.9255 10.5192 12.4386C10.7468 12.3091 10.6182 11.9649 10.3578 12.0029C6.19485 12.6079 2.99994 16.1333 2.99994 20.3921L3.00243 20.3896C2.9496 24.0009 5.92236 26.9554 9.58569 26.9554C11.5359 26.9554 13.2902 26.117 14.497 24.789C13.972 24.0941 13.5723 23.3036 13.3268 22.4501C12.5322 23.9045 10.8857 24.845 9.04697 24.6214C7.12711 24.388 5.58665 22.856 5.3695 20.9668C5.08079 18.453 7.08385 16.3152 9.58569 16.3152C11.2023 16.3152 12.6109 17.2083 13.3268 18.5192C13.6471 19.1053 13.7828 20.0234 13.8339 20.7322C13.9363 22.1546 14.2628 23.1168 15 24.1616C15.1547 24.3811 15.3228 24.5904 15.5029 24.789C16.7102 26.117 18.464 26.9554 20.4147 26.9554C20.7729 26.9554 21.1244 26.9268 21.4672 26.8724C20.9917 27.4769 20.3502 28.0664 19.4808 28.5618C19.2532 28.6913 19.3817 29.0351 19.6422 28.9971C23.8051 28.3921 27 24.8667 27 20.6079L26.9963 20.6116Z"
                        fill="white" />
                </g>
            </g>
            <path id="Fill 4" fill-rule="evenodd" clip-rule="evenodd"
                d="M18.5 22C18.2241 22 18 21.7411 18 21.4213V19.5787C18 19.2593 18.2241 19 18.5 19C18.7759 19 19 19.2593 19 19.5787V21.4213C19 21.7411 18.7759 22 18.5 22Z"
                fill="white" />
            <path id="Fill 6" fill-rule="evenodd" clip-rule="evenodd"
                d="M21.5 22C21.2241 22 21 21.7411 21 21.4213V19.5787C21 19.2593 21.2241 19 21.5 19C21.7759 19 22 19.2593 22 19.5787V21.4213C22 21.7411 21.7759 22 21.5 22Z"
                fill="white" />
            <path id="Fill 8" fill-rule="evenodd" clip-rule="evenodd"
                d="M11.5926 20C11.368 20 11.1856 20.1883 11.1856 20.4201C11.1856 21.3793 10.4295 22.1602 9.4998 22.1602C8.57051 22.1602 7.81438 21.3793 7.81438 20.4201C7.81438 20.1883 7.63158 20 7.40699 20C7.1828 20 7 20.1883 7 20.4201C7 21.843 8.12133 23 9.4998 23C10.8783 23 12 21.843 12 20.4201C12 20.1883 11.8172 20 11.5926 20Z"
                fill="white" />
        </g>
    </g>
</svg>