<svg width="31" height="41" viewBox="0 0 31 41" fill="none" xmlns="http://www.w3.org/2000/svg">
<g id="unlimitedticket copy 7">
<g id="freeticket copy">
<rect id="Rectangle Copy 3" x="1" y="1" width="29" height="39" rx="4" fill="white" stroke="#9B51E0" stroke-width="1.5"/>
<g id="Group 10 Copy 2">
<g id="Group 3">
<mask id="mask0_3_1354" style="mask-type:luminance" maskUnits="userSpaceOnUse" x="2" y="12" width="25" height="17">
<path id="Clip 2" fill-rule="evenodd" clip-rule="evenodd" d="M2.99988 12H26.9999V29H2.99988L2.99988 12Z" fill="white"/>
</mask>
<g mask="url(#mask0_3_1354)">
<path id="Fill 1" fill-rule="evenodd" clip-rule="evenodd" d="M26.9962 20.6116C27.002 20.3267 26.9907 20.0381 26.9579 19.7454C26.6193 16.7608 24.1619 14.3639 21.1218 14.0507C18.8912 13.8206 16.854 14.6933 15.5028 16.1803C16.0278 16.8752 16.4276 17.6657 16.673 18.5192C17.4676 17.0649 19.1141 16.1243 20.9529 16.3479C22.8727 16.5813 24.4132 18.1133 24.6299 20.0021C24.919 22.516 22.916 24.6541 20.4146 24.6541C18.7976 24.6541 17.3894 23.761 16.673 22.4501C16.3531 21.864 16.292 21.7128 16.1826 20.7923C16.0211 19.436 15.7374 17.8529 14.9999 16.8078C14.8451 16.5883 14.6775 16.3786 14.4969 16.1803C13.1457 14.6933 11.1081 13.8206 8.87795 14.0507C8.76896 14.0618 8.66287 14.0814 8.55596 14.0982C9.02896 13.5034 9.66378 12.9255 10.5191 12.4386C10.7466 12.3091 10.6181 11.9649 10.3577 12.0029C6.19473 12.6079 2.99982 16.1333 2.99982 20.3921L3.00231 20.3896C2.94948 24.0009 5.92224 26.9554 9.58557 26.9554C11.5358 26.9554 13.2901 26.117 14.4969 24.789C13.9719 24.0941 13.5721 23.3036 13.3267 22.4501C12.5321 23.9045 10.8856 24.845 9.04685 24.6214C7.12699 24.388 5.58653 22.856 5.36937 20.9668C5.08067 18.453 7.08372 16.3152 9.58557 16.3152C11.2022 16.3152 12.6107 17.2083 13.3267 18.5192C13.647 19.1053 13.7826 20.0234 13.8338 20.7322C13.9361 22.1546 14.2627 23.1168 14.9999 24.1616C15.1546 24.3811 15.3227 24.5904 15.5028 24.789C16.71 26.117 18.4639 26.9554 20.4146 26.9554C20.7727 26.9554 21.1243 26.9268 21.4671 26.8724C20.9916 27.4769 20.3501 28.0664 19.4806 28.5618C19.2531 28.6913 19.3816 29.0351 19.642 28.9971C23.805 28.3921 26.9999 24.8667 26.9999 20.6079L26.9962 20.6116Z" fill="#9B51E0"/>
</g>
</g>
<path id="Fill 4" fill-rule="evenodd" clip-rule="evenodd" d="M18.5001 22C18.2241 22 18.0001 21.7411 18.0001 21.4213V19.5787C18.0001 19.2593 18.2241 19 18.5001 19C18.776 19 19.0001 19.2593 19.0001 19.5787V21.4213C19.0001 21.7411 18.776 22 18.5001 22Z" fill="#9B51E0"/>
<path id="Fill 6" fill-rule="evenodd" clip-rule="evenodd" d="M21.4997 22C21.2238 22 20.9997 21.7411 20.9997 21.4213V19.5787C20.9997 19.2593 21.2238 19 21.4997 19C21.7756 19 21.9997 19.2593 21.9997 19.5787V21.4213C21.9997 21.7411 21.7756 22 21.4997 22Z" fill="#9B51E0"/>
<path id="Fill 8" fill-rule="evenodd" clip-rule="evenodd" d="M11.5926 20C11.368 20 11.1856 20.1883 11.1856 20.4201C11.1856 21.3793 10.4295 22.1602 9.4998 22.1602C8.57051 22.1602 7.81438 21.3793 7.81438 20.4201C7.81438 20.1883 7.63158 20 7.40699 20C7.1828 20 7 20.1883 7 20.4201C7 21.843 8.12133 23 9.4998 23C10.8783 23 12 21.843 12 20.4201C12 20.1883 11.8172 20 11.5926 20Z" fill="#9B51E0"/>
</g>
</g>
</g>
</svg>
